HIERARCHY
ROOT reference
{
  OFFSET 0 0 0
  CHANNELS 6 Xposition Yposition Zposition Zrotation Xrotation Yrotation
  JOINT Hips
  {
    OFFSET 0.275342 97.7085 247.782
    CHANNELS 6 Xposition Yposition Zposition Zrotation Xrotation Yrotation
    JOINT Spine
    {
      OFFSET 0 8.22665 0
      CHANNELS 6 Xposition Yposition Zposition Zrotation Xrotation Yrotation
      JOINT Spine1
      {
        OFFSET 0 24.451 0
        CHANNELS 6 Xposition Yposition Zposition Zrotation Xrotation Yrotation
        JOINT Neck
        {
          OFFSET 0 24.3506 2.21369
          CHANNELS 6 Xposition Yposition Zposition Zrotation Xrotation Yrotation
          JOINT Head
          {
            OFFSET 0 14.0455 -2.0065
            CHANNELS 6 Xposition Yposition Zposition Zrotation Xrotation Yrotation
            End Site
            {
              OFFSET 0 25.0812 0
            }
          }
        }
        JOINT LeftShoulder
        {
          OFFSET 4.0594 22.2558 -0.272799
          CHANNELS 6 Xposition Yposition Zposition Zrotation Xrotation Yrotation
          JOINT LeftArm
          {
            OFFSET 12.0298 0 0
            CHANNELS 6 Xposition Yposition Zposition Zrotation Xrotation Yrotation
            JOINT LeftForeArm
            {
              OFFSET 31.2689 0 0
              CHANNELS 6 Xposition Yposition Zposition Zrotation Xrotation Yrotation
              JOINT LeftHand
              {
                OFFSET 28.0275 0 0
                CHANNELS 6 Xposition Yposition Zposition Zrotation Xrotation Yrotation
                End Site
                {
                  OFFSET 15.0487 0 0
                }
              }
            }
          }
        }
        JOINT RightShoulder
        {
          OFFSET -3.96464 22.2558 -0.272799
          CHANNELS 6 Xposition Yposition Zposition Zrotation Xrotation Yrotation
          JOINT RightArm
          {
            OFFSET -12.0298 0 0
            CHANNELS 6 Xposition Yposition Zposition Zrotation Xrotation Yrotation
            JOINT RightForeArm
            {
              OFFSET -31.2689 0 0
              CHANNELS 6 Xposition Yposition Zposition Zrotation Xrotation Yrotation
              JOINT RightHand
              {
                OFFSET -28.0275 0 0
                CHANNELS 6 Xposition Yposition Zposition Zrotation Xrotation Yrotation
                End Site
                {
                  OFFSET -15.0487 0 0
                }
              }
            }
          }
        }
      }
    }
    JOINT LeftUpLeg
    {
      OFFSET 10.0325 0 0
      CHANNELS 6 Xposition Yposition Zposition Zrotation Xrotation Yrotation
      JOINT LeftLeg
      {
        OFFSET 0 -38.4033 0
        CHANNELS 6 Xposition Yposition Zposition Zrotation Xrotation Yrotation
        JOINT LeftFoot
        {
          OFFSET 0 -44.1642 0
          CHANNELS 6 Xposition Yposition Zposition Zrotation Xrotation Yrotation
          JOINT LeftToeBase
          {
            OFFSET 0 -6.52112 15.0487
            CHANNELS 6 Xposition Yposition Zposition Zrotation Xrotation Yrotation
            End Site
            {
              OFFSET 0 0 4.013
            }
          }
        }
      }
    }
    JOINT RightUpLeg
    {
      OFFSET -10.0325 0 0
      CHANNELS 6 Xposition Yposition Zposition Zrotation Xrotation Yrotation
      JOINT RightLeg
      {
        OFFSET 0 -38.4033 0
        CHANNELS 6 Xposition Yposition Zposition Zrotation Xrotation Yrotation
        JOINT RightFoot
        {
          OFFSET 0 -44.1642 0
          CHANNELS 6 Xposition Yposition Zposition Zrotation Xrotation Yrotation
          JOINT RightToeBase
          {
            OFFSET 0 -6.52112 15.0487
            CHANNELS 6 Xposition Yposition Zposition Zrotation Xrotation Yrotation
            End Site
            {
              OFFSET 0 0 4.013
            }
          }
        }
      }
    }
  }
}
MOTION
Frames:	8
Frame Time:	0.004
0 0 0 0 0 -0 -15.4964 65.7634 -179.442 3.03756 5.15133 -7.38161 0 8.22665 0 -13.7501 54.7574 8.99021 0 24.451 2.84217e-014 -4.36835 15.1559 2.42604 0 24.3506 2.21369 10.9821 10.5993 10.319 0 14.0455 -2.0065 -22.0212 -19.4612 3.35686 4.0594 22.2558 -0.272799 6.65128 2.50601 -39.4291 12.0298 1.42109e-014 -1.42109e-014 -11.2611 12.7974 -35.0338 31.2689 0 -3.55271e-015 5.42449 -14.4331 4.86524 28.0275 -2.84217e-014 0 48.6709 -10.3171 9.80101 -3.96464 22.2558 -0.272799 1.75346 3.24183 25.395 -12.0298 1.42109e-014 1.42109e-014 4.91911 12.1243 53.469 -31.2689 2.84217e-014 7.10543e-015 -3.47861 -10.9906 -1.07847 -28.0275 -2.84217e-014 0 -24.3627 -10.4478 -2.71014 10.0325 7.10543e-015 0 11.0477 -63.3165 15.1977 0 -38.4033 -2.13163e-014 -26.5028 73.1865 9.0522 7.10543e-015 -44.1642 0 13.2327 -19.2881 15.6709 0 -6.52112 15.0487 4.96962e-017 7.95139e-016 3.97569e-016 -10.0325 -7.10543e-015 -2.84217e-014 -7.1499 -39.0662 -6.42233 -7.10543e-015 -38.4033 1.42109e-014 -110.082 82.3054 112.79 0 -44.1642 0 8.63194 -25.2983 0.344481 0 -6.52112 15.0487 -1.59028e-015 3.18055e-015 1.59028e-015 
0 0 0 0 0 -0 -15.4838 65.7815 -179.457 3.04755 5.28438 -7.39238 0 8.22665 -2.84217e-014 -13.8757 55.0183 9.08532 0 24.451 -2.84217e-014 -4.3419 15.0772 2.40875 -1.77636e-015 24.3506 2.21369 11.0888 10.3493 10.3356 0 14.0455 -2.0065 -22.1441 -19.2855 3.33705 4.0594 22.2558 -0.272799 6.64673 2.53628 -39.4992 12.0298 0 0 -10.8548 12.5638 -35.0133 31.2689 0 -3.55271e-015 5.44812 -14.6468 4.88213 28.0275 0 -7.10543e-015 48.9182 -10.4586 9.91613 -3.96464 22.2558 -0.272799 1.72943 3.16 25.4092 -12.0298 2.84217e-014 0 4.57558 11.9088 53.5398 -31.2689 0 0 -3.55242 -11.1657 -1.08201 -28.0275 0 -1.42109e-014 -24.595 -10.6273 -2.66847 10.0325 -1.42109e-014 0 11.0973 -63.4491 15.3146 0 -38.4033 -1.42109e-014 -26.2938 73.1815 8.95983 0 -44.1642 0 13.1438 -19.2537 15.5934 3.55271e-015 -6.52112 15.0487 2.48481e-017 0 -0 -10.0325 0 0 -7.10063 -39.1778 -6.52114 0 -38.4033 1.42109e-014 -109.45 82.2482 111.999 0 -44.1642 1.42109e-014 8.65912 -25.2667 0.310089 0 -6.52112 15.0487 8.82781e-032 -3.18055e-015 1.59028e-015 
0 0 0 0 0 -0 -15.4756 65.8013 -179.475 3.05342 5.41569 -7.39433 7.10543e-015 8.22665 2.84217e-014 -13.9968 55.2909 9.17792 0 24.451 0 -4.31378 14.9639 2.38713 0 24.3506 2.21369 11.1621 10.2453 10.3382 0 14.0455 -2.0065 -22.2446 -19.2841 3.29348 4.0594 22.2558 -0.272799 6.65938 2.44405 -39.6284 12.0298 0 1.42109e-014 -10.5729 12.4763 -34.8973 31.2689 0 1.77636e-015 5.43705 -14.3962 4.92226 28.0275 2.84217e-014 0 48.7363 -10.2441 9.872 -3.96464 22.2558 -0.272799 1.70114 3.06535 25.4263 -12.0298 -2.84217e-014 -1.42109e-014 4.12087 11.8999 53.6084 -31.2689 0 0 -3.68922 -11.4243 -1.08113 -28.0275 -2.84217e-014 0 -24.8601 -10.8982 -2.58982 10.0325 1.42109e-014 0 11.1463 -63.5758 15.3864 0 -38.4033 0 -26.2051 73.1552 8.91802 7.10543e-015 -44.1642 2.84217e-014 13.0933 -19.1856 15.5562 0 -6.52112 15.0487 -0 0 3.97569e-016 -10.0325 0 2.84217e-014 -7.06618 -39.2717 -6.70701 0 -38.4033 0 -108.624 82.1385 111.028 0 -44.1642 0 8.65222 -25.2874 0.275715 1.42109e-014 -6.52112 15.0487 -7.95139e-016 -1.27222e-014 3.18055e-015 
0 0 0 0 0 -0 -15.4647 65.8212 -179.491 3.05558 5.55592 -7.39586 0 8.22665 0 -13.9845 55.5579 9.15747 0 24.451 0 -4.40291 14.8721 2.33973 1.77636e-015 24.3506 2.21369 11.1635 10.1505 10.38 0 14.0455 -2.0065 -22.2415 -19.3753 3.31119 4.0594 22.2558 -0.272799 6.74028 2.4855 -39.6024 12.0298 0 1.42109e-014 -10.1624 12.2756 -34.9416 31.2689 0 1.77636e-015 5.44716 -14.5282 4.95397 28.0275 -2.84217e-014 -7.10543e-015 48.5569 -10.3933 9.88367 -3.96464 22.2558 -0.272799 1.72575 2.93303 25.489 -12.0298 1.42109e-014 1.42109e-014 3.85981 11.6948 53.6636 -31.2689 0 0 -3.72854 -11.4308 -1.0939 -28.0275 1.42109e-014 0 -24.9577 -10.9067 -2.57393 10.0325 1.42109e-014 2.84217e-014 11.1818 -63.6922 15.3492 0 -38.4033 -7.10543e-015 -26.3357 73.0657 9.09706 0 -44.1642 0 13.1066 -19.1759 15.5329 0 -6.52112 15.0487 -2.48481e-017 0 -7.95139e-016 -10.0325 2.84217e-014 0 -7.04578 -39.3503 -6.87516 0 -38.4033 2.84217e-014 -107.715 82.0563 110.054 0 -44.1642 -1.42109e-014 8.56905 -25.3874 0.195849 0 -6.52112 15.0487 2.38542e-015 3.18055e-015 -1.59028e-015 
0 0 0 0 0 -0 -15.4524 65.8443 -179.506 3.06859 5.69675 -7.39705 0 8.22665 -2.84217e-014 -14.098 55.8181 9.23756 3.55271e-015 24.451 -2.84217e-014 -4.37526 14.7582 2.31036 0 24.3506 2.21369 11.1999 9.95558 10.4122 3.55271e-015 14.0455 -2.0065 -22.282 -19.2552 3.33251 4.0594 22.2558 -0.272799 6.74996 2.39198 -39.6741 12.0298 0 0 -9.93807 12.077 -34.8875 31.2689 2.84217e-014 -3.55271e-015 5.37566 -14.4461 4.93981 28.0275 -2.84217e-014 0 48.9603 -10.1869 10.056 -3.96464 22.2558 -0.272799 1.71222 2.81423 25.5407 -12.0298 -1.42109e-014 0 3.66166 11.4681 53.6546 -31.2689 0 0 -3.75701 -11.5406 -1.08897 -28.0275 -1.42109e-014 0 -25.2365 -11.0308 -2.48103 10.0325 -7.10543e-015 0 11.1865 -63.7984 15.2201 8.88178e-016 -38.4033 7.10543e-015 -26.6294 72.9335 9.44877 7.10543e-015 -44.1642 -2.84217e-014 13.1425 -19.1773 15.4997 0 -6.52112 15.0487 -2.48481e-017 7.95139e-016 -0 -10.0325 0 -2.84217e-014 -7.0265 -39.4294 -6.9418 0 -38.4033 1.42109e-014 -106.964 82.0543 109.187 0 -44.1642 2.84217e-014 8.53563 -25.4806 0.197888 0 -6.52112 15.0487 -7.95139e-016 1.27222e-014 1.59028e-015 
0 0 0 0 0 -0 -15.4418 65.8674 -179.523 3.07225 5.84537 -7.39819 0 8.22665 -2.84217e-014 -14.2332 56.0696 9.34676 0 24.451 -2.84217e-014 -4.33461 14.6379 2.29719 0 24.3506 2.21369 11.263 9.88971 10.4199 0 14.0455 -2.0065 -22.3809 -19.3053 3.28935 4.0594 22.2558 -0.272799 6.76778 2.4536 -39.8023 12.0298 0 0 -9.5326 11.9028 -34.802 31.2689 2.84217e-014 1.77636e-015 5.40916 -14.5499 4.92197 28.0275 0 -7.10543e-015 49.0792 -10.2838 10.0489 -3.96464 22.2558 -0.272799 1.67401 2.7474 25.5495 -12.0298 -2.84217e-014 1.42109e-014 3.37528 11.2611 53.6936 -31.2689 -2.84217e-014 -7.10543e-015 -3.79382 -11.789 -1.07437 -28.0275 -2.84217e-014 -1.42109e-014 -25.6483 -11.2847 -2.41684 10.0325 -1.42109e-014 -2.84217e-014 11.199 -63.9072 15.0778 0 -38.4033 7.10543e-015 -26.9286 72.7893 9.87918 0 -44.1642 -2.84217e-014 13.1981 -19.178 15.4471 0 -6.52112 15.0487 2.48481e-017 -1.59028e-015 -7.95139e-016 -10.0325 0 -2.84217e-014 -7.01964 -39.4872 -6.79784 0 -38.4033 1.42109e-014 -106.471 82.2885 108.641 7.10543e-015 -44.1642 1.42109e-014 8.44853 -25.6616 0.166162 1.42109e-014 -6.52112 15.0487 -1.59028e-015 6.36111e-015 -0 
0 0 0 0 0 -0 -15.4316 65.8893 -179.539 3.07688 5.99842 -7.39941 0 8.22665 0 -14.2897 56.3155 9.39111 0 24.451 0 -4.34692 14.5418 2.26953 0 24.3506 2.21369 11.3168 9.64259 10.4415 0 14.0455 -2.0065 -22.4158 -19.1414 3.30306 4.0594 22.2558 -0.272799 6.80313 2.33843 -39.8224 12.0298 -2.84217e-014 0 -9.30793 11.7411 -34.8065 31.2689 0 0 5.33104 -14.543 4.9079 28.0275 0 0 49.3114 -10.1957 10.1645 -3.96464 22.2558 -0.272799 1.64221 2.68907 25.549 -12.0298 1.42109e-014 0 3.15114 10.9509 53.7586 -31.2689 -2.84217e-014 0 -3.81336 -11.8513 -1.06348 -28.0275 0 0 -25.8947 -11.3436 -2.40796 10.0325 -7.10543e-015 0 11.2492 -64.0604 15.1704 -8.88178e-016 -38.4033 7.10543e-015 -26.7301 72.7918 9.78115 0 -44.1642 2.84217e-014 13.1692 -19.0686 15.312 3.55271e-015 -6.52112 15.0487 7.45443e-017 -7.95139e-016 -3.97569e-016 -10.0325 -7.10543e-015 2.84217e-014 -6.97117 -39.5973 -6.66987 0 -38.4033 1.42109e-014 -106.256 82.4359 108.354 0 -44.1642 0 8.4591 -25.6939 0.107286 0 -6.52112 15.0487 -1.59028e-015 3.18055e-015 1.59028e-015 
0 0 0 0 0 -0 -15.4184 65.9147 -179.553 3.09447 6.13892 -7.40067 0 8.22665 0 -14.325 56.5604 9.40675 0 24.451 0 -4.39357 14.4496 2.23059 1.77636e-015 24.3506 2.21369 11.2119 9.51294 10.44 0 14.0455 -2.0065 -22.2832 -19.1705 3.33053 4.0594 22.2558 -0.272799 6.8856 2.32892 -39.8968 12.0298 0 -1.42109e-014 -9.01125 11.5906 -34.7336 31.2689 0 1.77636e-015 5.38706 -14.4948 4.86268 28.0275 0 0 49.5208 -10.0411 10.347 -3.96464 22.2558 -0.272799 1.59143 2.57544 25.6075 -12.0298 -1.42109e-014 1.42109e-014 2.97543 10.7621 53.7887 -31.2689 0 0 -3.90958 -11.9326 -1.09246 -28.0275 -1.42109e-014 0 -26.0305 -11.4444 -2.31763 10.0325 0 2.84217e-014 11.2616 -64.1765 15.2027 -8.88178e-016 -38.4033 0 -26.5037 72.6939 9.57842 0 -44.1642 -2.84217e-014 13.1473 -18.9535 15.1362 0 -6.52112 15.0487 -2.48481e-017 7.95139e-016 7.95139e-016 -10.0325 0 0 -6.94916 -39.673 -6.63882 0 -38.4033 -1.42109e-014 -105.619 82.5013 107.685 0 -44.1642 1.42109e-014 8.43918 -25.8011 0.039311 0 -6.52112 15.0487 7.95139e-016 0 1.59028e-015 
